<?xml version="1.0" standalone="no"?>
<!DOCTYPE svg PUBLIC "-//W3C//DTD SVG 20010904//EN"
 "http://www.w3.org/TR/2001/REC-SVG-20010904/DTD/svg10.dtd">
<svg version="1.0" xmlns="http://www.w3.org/2000/svg"
 width="300.000000pt" height="300.000000pt" viewBox="0 0 300.000000 300.000000"
 preserveAspectRatio="xMidYMid meet">
<metadata>
Created by potrace 1.11, written by Peter Selinger 2001-2013
</metadata>
<g transform="translate(0.000000,300.000000) scale(0.100000,-0.100000)"
fill="#000000" stroke="none">
<path d="M1603 2964 c-153 -32 -277 -145 -333 -304 -29 -82 -36 -282 -14 -404
14 -75 65 -268 83 -311 5 -11 32 -78 61 -150 49 -120 170 -366 209 -425 9 -14
23 -37 31 -52 7 -16 17 -28 22 -28 16 0 211 50 293 76 150 47 330 117 455 177
394 191 586 419 567 670 -15 188 -145 348 -325 401 -36 10 -85 14 -145 13 -82
-3 -100 -7 -167 -39 -75 -37 -174 -121 -190 -162 -4 -12 -5 20 -2 70 4 76 1
103 -17 160 -74 229 -294 357 -528 308z"/>
<path d="M999 1486 c-66 -27 -100 -50 -151 -103 -36 -38 -85 -122 -94 -166
-10 -41 -11 -141 -3 -169 4 -16 4 -28 -2 -28 -5 0 -9 4 -9 9 0 21 -99 104
-159 134 -61 30 -73 32 -166 32 -87 0 -107 -4 -155 -26 -73 -35 -127 -79 -166
-138 -30 -45 -63 -112 -63 -129 0 -4 -3 -28 -6 -53 -26 -189 115 -385 390
-541 160 -91 448 -201 661 -252 l92 -23 70 126 c144 259 243 508 277 701 18
100 21 134 19 212 -5 195 -83 330 -234 401 -55 26 -78 31 -155 34 -75 2 -100
-2 -146 -21z"/>
</g>
</svg>
